<svg width="74" height="23" viewBox="0 0 74 23" fill="none" xmlns="http://www.w3.org/2000/svg">
<path d="M13.1482 0V18.0927H10.2264L9.73116 17.0269C9.35149 17.4235 8.82325 17.754 8.14644 18.0183C7.48614 18.2662 6.79283 18.3901 6.0665 18.3901C5.1916 18.3901 4.38273 18.2249 3.6399 17.8944C2.89706 17.5474 2.25327 17.0848 1.70852 16.5065C1.18028 15.9116 0.759344 15.2259 0.445702 14.4494C0.148567 13.6563 0 12.8136 0 11.9213C0 11.0291 0.148567 10.1947 0.445702 9.4181C0.759344 8.625 1.18028 7.93929 1.70852 7.36099C2.25327 6.76616 2.89706 6.30352 3.6399 5.97306C4.38273 5.62608 5.1916 5.45259 6.0665 5.45259C6.84235 5.45259 7.52741 5.54346 8.12168 5.72521C8.73245 5.90697 9.26895 6.21264 9.73116 6.64224V0H13.1482ZM9.73116 11.9709C9.73116 11.3265 9.64862 10.7895 9.48354 10.3599C9.31847 9.91379 9.08737 9.55855 8.79023 9.29418C8.4931 9.01329 8.14644 8.81501 7.75026 8.69935C7.37059 8.56717 6.9579 8.50108 6.5122 8.50108C6.0665 8.50108 5.64556 8.59195 5.24938 8.77371C4.86971 8.95546 4.5313 9.2033 4.23417 9.51724C3.95354 9.81465 3.73069 10.1782 3.56561 10.6078C3.40054 11.0208 3.318 11.4587 3.318 11.9213C3.318 12.4005 3.40054 12.8466 3.56561 13.2597C3.73069 13.6728 3.95354 14.0363 4.23417 14.3502C4.5313 14.6476 4.86971 14.8872 5.24938 15.069C5.64556 15.2507 6.0665 15.3416 6.5122 15.3416C7.4036 15.3416 8.15469 15.069 8.76547 14.5237C9.39275 13.9619 9.71465 13.111 9.73116 11.9709Z" fill="white"/>
<path d="M18.7404 7.5097C18.9054 7.24533 19.0953 6.99748 19.3099 6.76616C19.5245 6.51832 19.7803 6.30352 20.0775 6.12177C20.3746 5.92349 20.713 5.76652 21.0927 5.65086C21.4724 5.5352 21.9015 5.47737 22.3803 5.47737C22.9415 5.47737 23.5936 5.57651 24.3364 5.77478L24.0145 8.82327C23.8329 8.79023 23.6513 8.74892 23.4698 8.69935C23.3212 8.66631 23.1561 8.64152 22.9745 8.625C22.793 8.59195 22.6279 8.57543 22.4793 8.57543C21.9511 8.57543 21.4558 8.64978 20.9936 8.79849C20.5479 8.9472 20.16 9.15374 19.8299 9.4181C19.4997 9.68247 19.2356 10.0047 19.0375 10.3847C18.8394 10.7482 18.7404 11.1448 18.7404 11.5744V18.0927H15.3233V5.79957H18.4185L18.7404 7.5097Z" fill="white"/>
<path d="M31.6189 5.45259C32.4938 5.45259 33.3192 5.62608 34.095 5.97306C34.8709 6.30352 35.5477 6.76616 36.1255 7.36099C36.7032 7.93929 37.1572 8.625 37.4873 9.4181C37.834 10.1947 38.0073 11.0291 38.0073 11.9213C38.0073 12.8136 37.834 13.6563 37.4873 14.4494C37.1572 15.2259 36.7032 15.9116 36.1255 16.5065C35.5477 17.0848 34.8709 17.5474 34.095 17.8944C33.3192 18.2249 32.4938 18.3901 31.6189 18.3901C30.7275 18.3901 29.8939 18.2249 29.118 17.8944C28.3422 17.5474 27.6654 17.0848 27.0876 16.5065C26.5098 15.9116 26.0476 15.2259 25.701 14.4494C25.3708 13.6563 25.2058 12.8136 25.2058 11.9213C25.2058 11.0291 25.3708 10.1947 25.701 9.4181C26.0476 8.625 26.5098 7.93929 27.0876 7.36099C27.6654 6.76616 28.3422 6.30352 29.118 5.97306C29.8939 5.62608 30.7275 5.45259 31.6189 5.45259ZM31.6189 15.3912C32.0316 15.3912 32.4113 15.3085 32.7579 15.1433C33.1211 14.9781 33.4347 14.755 33.6988 14.4741C33.9795 14.1767 34.1941 13.8297 34.3426 13.4332C34.5077 13.0201 34.5903 12.5657 34.5903 12.07C34.5903 11.5744 34.5077 11.1117 34.3426 10.6821C34.1941 10.2525 33.9795 9.88075 33.6988 9.56681C33.4347 9.23635 33.1211 8.98024 32.7579 8.79849C32.4113 8.60021 32.0316 8.50108 31.6189 8.50108C31.2062 8.50108 30.8183 8.60021 30.4551 8.79849C30.092 8.98024 29.7701 9.23635 29.4894 9.56681C29.2253 9.88075 29.0107 10.2525 28.8456 10.6821C28.6971 11.1117 28.6228 11.5744 28.6228 12.07C28.6228 12.5657 28.6971 13.0201 28.8456 13.4332C29.0107 13.8297 29.2253 14.1767 29.4894 14.4741C29.7701 14.755 30.092 14.9781 30.4551 15.1433C30.8183 15.3085 31.2062 15.3912 31.6189 15.3912Z" fill="white"/>
<path d="M46.902 5.45259C47.7769 5.45259 48.5858 5.62608 49.3286 5.97306C50.0714 6.30352 50.707 6.76616 51.2352 7.36099C51.7799 7.93929 52.2009 8.625 52.498 9.4181C52.8117 10.1947 52.9685 11.0291 52.9685 11.9213C52.9685 12.8136 52.8117 13.6563 52.498 14.4494C52.2009 15.2259 51.7799 15.9116 51.2352 16.5065C50.707 17.0848 50.0714 17.5474 49.3286 17.8944C48.5858 18.2249 47.7769 18.3901 46.902 18.3901C46.1922 18.3901 45.4989 18.2662 44.8221 18.0183C44.1452 17.754 43.617 17.4235 43.2373 17.0269V23H39.8203V5.79957H42.7421L43.2373 6.64224C43.716 6.21264 44.2525 5.90697 44.8468 5.72521C45.4411 5.54346 46.1261 5.45259 46.902 5.45259ZM46.4563 15.3416C46.902 15.3416 47.3147 15.2507 47.6944 15.069C48.0905 14.8872 48.4289 14.6476 48.7096 14.3502C49.0067 14.0363 49.2378 13.6728 49.4029 13.2597C49.5845 12.8466 49.6752 12.4005 49.6752 11.9213C49.6752 11.4587 49.5845 11.0208 49.4029 10.6078C49.2378 10.1782 49.0067 9.81465 48.7096 9.51724C48.4289 9.2033 48.0905 8.95546 47.6944 8.77371C47.3147 8.59195 46.902 8.50108 46.4563 8.50108C46.0106 8.50108 45.5896 8.56717 45.1935 8.69935C44.8138 8.81501 44.4754 9.01329 44.1783 9.29418C43.8976 9.55855 43.6748 9.91379 43.5097 10.3599C43.3446 10.7895 43.2621 11.31 43.2621 11.9213C43.2621 12.4996 43.3446 13.0036 43.5097 13.4332C43.6748 13.8463 43.8976 14.2015 44.1783 14.4989C44.4754 14.7798 44.8138 14.9946 45.1935 15.1433C45.5896 15.2755 46.0106 15.3416 46.4563 15.3416Z" fill="white"/>
<path d="M55.9922 15.8398H74.0003V18.1944H55.9922V15.8398Z" fill="white"/>
</svg>
