<svg width="139" height="89" viewBox="0 0 139 89" fill="none" xmlns="http://www.w3.org/2000/svg">
<rect width="139" height="89" fill="black"/>
<path d="M34.344 41.752C34.504 41.496 34.688 41.256 34.896 41.032C35.104 40.792 35.352 40.584 35.64 40.408C35.928 40.216 36.256 40.064 36.624 39.952C36.992 39.84 37.408 39.784 37.872 39.784C38.416 39.784 39.048 39.88 39.768 40.072L39.456 43.024C39.28 42.992 39.104 42.952 38.928 42.904C38.784 42.872 38.624 42.848 38.448 42.832C38.272 42.8 38.112 42.784 37.968 42.784C37.456 42.784 36.976 42.856 36.528 43C36.096 43.144 35.72 43.344 35.4 43.6C35.08 43.856 34.824 44.168 34.632 44.536C34.44 44.888 34.344 45.272 34.344 45.688V52H31.032V40.096H34.032L34.344 41.752ZM53.4266 40.096V52H50.5706L50.2346 50.728C49.7706 51.352 49.2106 51.768 48.5546 51.976C47.9146 52.184 47.2426 52.288 46.5386 52.288C45.6906 52.288 44.9066 52.128 44.1866 51.808C43.4826 51.472 42.8666 51.024 42.3386 50.464C41.8106 49.888 41.3946 49.224 41.0906 48.472C40.8026 47.704 40.6586 46.888 40.6586 46.024C40.6586 45.16 40.8026 44.352 41.0906 43.6C41.3946 42.832 41.8106 42.168 42.3386 41.608C42.8666 41.032 43.4826 40.584 44.1866 40.264C44.9066 39.928 45.6906 39.76 46.5386 39.76C47.3066 39.76 48.0106 39.88 48.6506 40.12C49.2906 40.36 49.8186 40.744 50.2346 41.272L50.5706 40.096H53.4266ZM50.1146 46.072C50.1146 45.448 50.0266 44.928 49.8506 44.512C49.6906 44.08 49.4666 43.736 49.1786 43.48C48.9066 43.208 48.5786 43.016 48.1946 42.904C47.8266 42.776 47.4266 42.712 46.9946 42.712C46.5626 42.712 46.1546 42.8 45.7706 42.976C45.4026 43.152 45.0746 43.392 44.7866 43.696C44.4986 43.984 44.2746 44.336 44.1146 44.752C43.9546 45.152 43.8746 45.576 43.8746 46.024C43.8746 46.488 43.9546 46.92 44.1146 47.32C44.2746 47.72 44.4986 48.072 44.7866 48.376C45.0746 48.664 45.4026 48.896 45.7706 49.072C46.1546 49.248 46.5626 49.336 46.9946 49.336C47.8586 49.336 48.5866 49.072 49.1786 48.544C49.7866 48 50.0986 47.176 50.1146 46.072ZM58.8362 41.752C58.9962 41.496 59.1802 41.256 59.3882 41.032C59.5962 40.792 59.8442 40.584 60.1322 40.408C60.4202 40.216 60.7482 40.064 61.1162 39.952C61.4842 39.84 61.9002 39.784 62.3642 39.784C62.9082 39.784 63.5402 39.88 64.2602 40.072L63.9482 43.024C63.7722 42.992 63.5962 42.952 63.4202 42.904C63.2762 42.872 63.1162 42.848 62.9402 42.832C62.7642 42.8 62.6042 42.784 62.4602 42.784C61.9482 42.784 61.4682 42.856 61.0202 43C60.5882 43.144 60.2122 43.344 59.8922 43.6C59.5722 43.856 59.3162 44.168 59.1242 44.536C58.9322 44.888 58.8362 45.272 58.8362 45.688V52H55.5242V40.096H58.5242L58.8362 41.752ZM69.0628 52H65.7508V40.096H69.0628V52ZM67.4068 38.464C66.8948 38.464 66.4628 38.288 66.1108 37.936C65.7588 37.584 65.5828 37.152 65.5828 36.64C65.5828 36.128 65.7588 35.696 66.1108 35.344C66.4628 34.976 66.8948 34.792 67.4068 34.792C67.9188 34.792 68.3508 34.976 68.7028 35.344C69.0548 35.696 69.2308 36.128 69.2308 36.64C69.2308 37.152 69.0548 37.584 68.7028 37.936C68.3508 38.288 67.9188 38.464 67.4068 38.464ZM75.9251 47.728C75.9251 48.288 76.0931 48.72 76.4291 49.024C76.7811 49.328 77.2371 49.48 77.7971 49.48C78.2451 49.48 78.6931 49.392 79.1411 49.216V52C78.7411 52.128 78.3171 52.232 77.8691 52.312C77.4211 52.408 76.9731 52.456 76.5251 52.456C76.0131 52.456 75.5251 52.392 75.0611 52.264C74.5971 52.136 74.1811 51.92 73.8131 51.616C73.4451 51.296 73.1491 50.88 72.9251 50.368C72.7171 49.84 72.6131 49.192 72.6131 48.424V43.048H70.9091V40.816L72.6131 40.096V37.432H75.9251V40.096H79.1411V43.048H75.9251V47.728ZM89.9126 40.096H93.5366L86.0246 56.752H82.4006L85.3526 50.2L80.3126 40.096H84.0086L87.1046 46.312L89.9126 40.096Z" fill="white"/>
<path d="M94.9723 52H106.996V54.28H94.9723V52Z" fill="#E13F3F"/>
</svg>
