<svg width="18" height="16" viewBox="0 0 18 16" fill="none" xmlns="http://www.w3.org/2000/svg">
<path d="M17.9647 2.42818C17.2909 2.72488 16.577 2.92073 15.846 3.00943C16.6156 2.54686 17.1918 1.82146 17.4683 0.967176C16.755 1.38343 15.9645 1.68643 15.123 1.85518C14.5678 1.2615 13.8322 0.867742 13.0302 0.735052C12.2283 0.602362 11.405 0.738164 10.6882 1.12137C9.97138 1.50457 9.40114 2.11374 9.06604 2.85427C8.73094 3.5948 8.64972 4.42525 8.835 5.21668C5.7675 5.07193 3.05025 3.59818 1.23 1.37218C0.899095 1.93454 0.726498 2.57595 0.7305 3.22843C0.7305 4.51093 1.383 5.63818 2.3715 6.30043C1.78564 6.28178 1.21273 6.12338 0.7005 5.83843V5.88343C0.700168 6.73572 0.994701 7.56188 1.53413 8.22174C2.07356 8.88161 2.82466 9.33453 3.66 9.50367C3.11872 9.64871 2.55181 9.6705 2.001 9.56742C2.23809 10.3009 2.69825 10.9421 3.31726 11.4015C3.93627 11.861 4.68326 12.1157 5.454 12.1302C4.14865 13.1546 2.53686 13.7107 0.8775 13.7089C0.585 13.7089 0.29325 13.6917 0 13.6587C1.69178 14.7419 3.65888 15.3169 5.66775 15.3154C12.4575 15.3154 16.1663 9.69343 16.1663 4.82668C16.1663 4.66918 16.1663 4.51168 16.155 4.35418C16.8795 3.83282 17.5044 3.18554 18 2.44318L17.9647 2.42818Z" fill="white"/>
</svg>
