<svg width="18" height="14" viewBox="0 0 18 14" fill="none" xmlns="http://www.w3.org/2000/svg">
<path d="M15.2378 1.27797C14.0708 0.74229 12.8392 0.360301 11.5739 0.141568C11.5624 0.139423 11.5506 0.140958 11.54 0.145954C11.5294 0.15095 11.5207 0.159152 11.5151 0.169393C11.3568 0.450868 11.1815 0.817993 11.0588 1.10652C9.6753 0.899368 8.29883 0.899368 6.94373 1.10652C6.82103 0.811543 6.63938 0.450868 6.48045 0.169393C6.47457 0.159385 6.4658 0.151384 6.4553 0.146433C6.4448 0.141483 6.43304 0.139814 6.42158 0.141643C5.15616 0.359868 3.92452 0.741824 2.75768 1.27789C2.7477 1.28216 2.73928 1.28942 2.7336 1.29867C0.400053 4.78497 -0.239247 8.18554 0.074403 11.544C0.0752899 11.5522 0.0778179 11.5602 0.0818373 11.5674C0.0858568 11.5746 0.0912859 11.581 0.097803 11.586C1.6374 12.7167 3.12878 13.4031 4.59248 13.8581C4.60386 13.8615 4.61601 13.8613 4.62729 13.8576C4.63858 13.8539 4.64847 13.8469 4.65563 13.8374C5.00183 13.3646 5.31045 12.866 5.57513 12.3417C5.57877 12.3346 5.58084 12.3267 5.58122 12.3187C5.5816 12.3106 5.58027 12.3026 5.57733 12.2951C5.57438 12.2876 5.56988 12.2808 5.56412 12.2752C5.55837 12.2696 5.55148 12.2652 5.54393 12.2625C5.05433 12.0768 4.5882 11.8503 4.13978 11.5932C4.1316 11.5884 4.12473 11.5817 4.11978 11.5736C4.11482 11.5655 4.11194 11.5563 4.11138 11.5469C4.11081 11.5374 4.11259 11.528 4.11655 11.5193C4.12051 11.5107 4.12653 11.5032 4.13408 11.4975C4.22843 11.4267 4.32285 11.3532 4.41293 11.2789C4.42093 11.2723 4.43062 11.2681 4.44091 11.2667C4.45119 11.2653 4.46166 11.2668 4.47113 11.271C7.41698 12.616 10.6061 12.616 13.5172 11.271C13.5267 11.2665 13.5372 11.2648 13.5477 11.2661C13.5581 11.2673 13.5679 11.2715 13.5761 11.2782C13.6662 11.3524 13.7606 11.4267 13.8557 11.4975C13.8632 11.5032 13.8693 11.5106 13.8733 11.5192C13.8773 11.5278 13.8791 11.5372 13.8787 11.5466C13.8782 11.5561 13.8754 11.5653 13.8705 11.5734C13.8656 11.5815 13.8588 11.5883 13.8507 11.5932C13.4021 11.8552 12.9322 12.0788 12.446 12.2617C12.4384 12.2646 12.4315 12.2691 12.4258 12.2748C12.4201 12.2805 12.4157 12.2874 12.4128 12.2949C12.4099 12.3025 12.4087 12.3105 12.4091 12.3186C12.4096 12.3267 12.4117 12.3346 12.4154 12.3417C12.6857 12.8652 12.9944 13.3638 13.3342 13.8366C13.3411 13.8464 13.351 13.8537 13.3623 13.8576C13.3736 13.8614 13.3859 13.8616 13.3973 13.8581C14.8681 13.4031 16.3595 12.7167 17.8991 11.586C17.9057 11.5812 17.9112 11.575 17.9153 11.5679C17.9193 11.5607 17.9218 11.5528 17.9225 11.5446C18.2978 7.66189 17.2939 4.28922 15.2612 1.29934C15.2562 1.28963 15.2479 1.28202 15.2378 1.27789V1.27797ZM6.015 9.49902C5.12813 9.49902 4.39733 8.68474 4.39733 7.68477C4.39733 6.68487 5.11395 5.87059 6.01508 5.87059C6.92318 5.87059 7.64685 6.69199 7.63268 7.68484C7.63268 8.68474 6.91605 9.49902 6.015 9.49902ZM11.9961 9.49902C11.1092 9.49902 10.3784 8.68474 10.3784 7.68477C10.3784 6.68487 11.095 5.87059 11.9961 5.87059C12.9042 5.87059 13.6279 6.69199 13.6137 7.68484C13.6137 8.68474 12.9042 9.49902 11.9961 9.49902Z" fill="white"/>
</svg>
